<?xml version="1.0" standalone="no"?>
<!DOCTYPE svg PUBLIC "-//W3C//DTD SVG 20010904//EN"
 "http://www.w3.org/TR/2001/REC-SVG-20010904/DTD/svg10.dtd">
<svg version="1.0" xmlns="http://www.w3.org/2000/svg"
 width="896.000000pt" height="896.000000pt" viewBox="0 0 896.000000 896.000000"
 preserveAspectRatio="xMidYMid meet">
<metadata>
Created by potrace 1.14, written by Peter Selinger 2001-2017
</metadata>
<g transform="translate(0.000000,896.000000) scale(0.100000,-0.100000)"
fill="#000000" stroke="none">
<path d="M2300 8590 c-47 -26 -90 -53 -97 -59 -7 -6 -19 -11 -28 -11 -8 0 -15
-3 -15 -7 0 -5 -24 -21 -53 -37 -28 -17 -73 -45 -98 -63 -26 -18 -51 -33 -58
-33 -6 0 -11 -4 -11 -8 0 -5 -16 -17 -35 -28 -19 -10 -35 -22 -35 -26 0 -5 -6
-8 -14 -8 -8 0 -16 -3 -18 -7 -1 -5 -30 -28 -63 -52 -33 -25 -62 -47 -65 -50
-3 -4 -21 -18 -42 -33 -20 -15 -42 -33 -50 -40 -7 -7 -38 -33 -68 -58 -103
-85 -313 -288 -410 -397 -99 -111 -116 -130 -145 -167 -16 -21 -37 -46 -46
-56 -8 -11 -23 -29 -32 -42 -10 -13 -46 -62 -82 -110 -36 -48 -65 -92 -65 -97
0 -5 -3 -11 -8 -13 -11 -4 -92 -126 -92 -137 0 -5 -3 -11 -7 -13 -8 -3 -20
-23 -64 -103 -12 -22 -25 -42 -29 -45 -3 -3 -18 -27 -31 -55 -14 -27 -42 -82
-62 -121 -20 -39 -37 -76 -37 -83 0 -6 -4 -11 -10 -11 -5 0 -10 -4 -10 -9 0
-5 -13 -38 -29 -73 -16 -35 -41 -92 -56 -128 -14 -36 -33 -79 -41 -97 -8 -17
-14 -37 -14 -45 0 -8 -3 -18 -7 -22 -4 -3 -8 -12 -10 -19 -1 -7 -23 -73 -48
-147 -25 -74 -48 -150 -51 -168 -4 -18 -10 -35 -15 -38 -5 -3 -7 -9 -4 -14 3
-5 2 -18 -4 -27 -5 -10 -11 -31 -14 -48 -2 -16 -10 -49 -16 -73 -7 -24 -14
-55 -16 -70 -3 -15 -6 -34 -8 -42 -4 -17 -15 -71 -22 -115 -3 -16 -8 -46 -12
-65 -3 -19 -7 -50 -7 -67 -1 -18 -3 -33 -6 -33 -3 0 -6 -22 -8 -49 -2 -28 -5
-59 -7 -71 -12 -62 -20 -243 -19 -465 0 -290 9 -432 40 -630 2 -16 7 -45 9
-62 9 -63 14 -88 29 -163 9 -41 18 -90 21 -109 3 -19 8 -38 12 -44 3 -6 7 -20
9 -31 2 -20 16 -73 49 -186 9 -30 18 -62 20 -70 2 -8 4 -16 5 -17 2 -2 3 -6 4
-10 3 -12 27 -86 33 -103 4 -8 7 -17 8 -20 1 -3 5 -14 9 -25 4 -11 13 -33 18
-50 6 -16 17 -43 23 -60 14 -33 27 -67 30 -75 1 -3 9 -23 19 -45 27 -60 39
-89 41 -95 2 -10 137 -276 159 -315 12 -22 35 -62 51 -90 16 -27 48 -80 72
-118 24 -37 43 -71 43 -76 0 -5 3 -11 8 -13 4 -1 27 -32 52 -68 24 -36 48 -66
52 -68 4 -2 8 -10 8 -18 0 -8 5 -14 10 -14 6 0 10 -6 10 -14 0 -8 3 -16 8 -18
4 -1 23 -23 42 -48 19 -25 40 -52 47 -60 24 -31 129 -157 163 -195 60 -67 312
-318 375 -373 33 -28 76 -65 95 -82 19 -17 69 -56 110 -88 41 -31 86 -67 100
-79 14 -13 28 -23 32 -23 3 0 13 -6 20 -13 8 -6 21 -16 29 -22 9 -5 51 -34 93
-62 43 -29 81 -53 86 -53 5 0 10 -4 12 -9 5 -12 235 -144 378 -216 148 -75
181 -90 331 -150 63 -25 123 -50 134 -55 11 -5 38 -14 60 -21 22 -6 46 -16 53
-22 6 -5 12 -7 12 -4 0 4 19 -1 43 -9 23 -9 47 -17 52 -18 6 -2 17 -5 25 -8
25 -10 210 -59 237 -64 15 -3 30 -7 34 -10 4 -2 42 -11 86 -19 74 -14 96 -19
153 -32 14 -3 34 -6 45 -8 19 -2 96 -13 140 -20 11 -2 20 -4 20 -5 0 -1 23 -3
50 -5 28 -2 66 -6 85 -9 179 -27 820 -28 960 -1 12 2 40 5 62 7 22 1 41 5 44
10 3 4 11 5 18 2 15 -6 381 56 394 66 1 2 11 4 22 5 11 1 21 3 23 4 3 3 186
50 207 55 8 1 22 5 30 8 8 3 74 25 145 48 72 23 141 47 155 53 14 6 27 11 30
12 11 2 118 45 155 61 22 10 42 18 45 19 3 0 32 13 65 29 33 16 94 44 135 64
41 19 77 38 80 42 3 4 16 11 30 15 14 4 27 10 30 14 3 3 21 14 40 25 74 40
126 70 152 87 14 11 28 19 31 19 12 0 321 213 384 264 10 8 45 37 78 63 33 26
65 53 71 58 7 6 36 30 65 55 115 96 473 465 503 519 5 9 15 21 21 26 23 19
125 154 125 164 0 6 4 11 8 11 4 0 50 64 102 143 52 78 97 144 100 147 3 3 11
16 18 30 7 14 23 43 36 65 60 102 116 207 153 285 76 157 113 241 113 254 0 6
7 22 16 34 8 12 13 22 10 22 -3 0 3 19 13 43 28 64 34 80 38 101 2 11 7 24 12
30 4 6 16 38 25 71 10 33 24 78 31 100 13 39 34 114 40 145 2 8 11 42 20 74 8
33 17 69 20 80 2 12 4 23 5 26 1 3 3 10 4 15 1 6 6 33 11 60 11 58 12 64 15
68 1 1 3 16 5 32 5 45 15 108 20 125 2 8 7 43 10 78 4 35 8 73 11 85 26 134
25 727 -2 947 -3 25 -7 59 -9 75 -9 73 -16 122 -22 150 -4 17 -7 37 -8 45 -1
13 -8 57 -21 124 -2 10 -8 33 -14 51 -6 18 -10 37 -9 41 1 5 0 11 -1 14 -1 3
-3 12 -5 20 -8 42 -59 227 -87 315 -18 55 -32 102 -33 105 -5 17 -18 47 -26
62 -5 10 -9 27 -9 38 0 11 -4 20 -10 20 -5 0 -10 7 -10 15 0 46 -210 494 -285
609 -8 12 -12 26 -8 29 3 4 2 7 -3 7 -5 0 -18 17 -29 38 -11 20 -23 39 -26 42
-3 3 -12 16 -19 29 -7 14 -17 30 -22 35 -5 6 -31 45 -58 86 -72 109 -193 276
-210 290 -3 3 -19 23 -36 45 -16 21 -40 51 -54 66 -14 14 -50 55 -80 90 -72
82 -279 289 -360 359 -35 30 -71 62 -80 70 -8 9 -34 29 -55 45 -22 17 -47 36
-55 44 -40 38 -382 281 -396 281 -3 0 -25 14 -49 30 -24 17 -48 30 -53 30 -6
0 -12 4 -14 8 -1 5 -49 34 -105 64 -75 41 -105 53 -112 44 -9 -11 -230 -446
-650 -1281 -116 -231 -214 -425 -218 -430 -5 -6 -28 -53 -53 -105 -24 -52 -48
-99 -51 -105 -18 -25 -87 -165 -82 -165 3 0 1 -6 -5 -13 -6 -7 -113 -215 -238
-462 -124 -248 -230 -454 -235 -459 -5 -6 -9 -18 -9 -27 0 -10 -3 -19 -7 -21
-8 -3 -58 -97 -58 -108 0 -3 -5 -12 -10 -20 -10 -16 -419 -824 -444 -878 -8
-17 -18 -32 -21 -32 -3 0 -19 28 -35 63 -16 34 -35 69 -43 79 -7 9 -15 22 -16
30 -1 7 -13 33 -26 58 -30 55 -47 92 -48 104 0 5 -4 12 -9 15 -9 7 -168 322
-168 334 0 4 -6 11 -13 16 -8 5 -13 11 -12 15 2 9 -143 299 -153 307 -5 3 -8
9 -8 13 1 3 -43 95 -98 204 -284 566 -372 738 -381 749 -5 7 -10 16 -10 20 -1
4 -34 73 -75 153 -119 235 -156 309 -154 316 0 4 -3 10 -8 13 -8 6 -72 132
-423 831 -95 190 -178 348 -184 352 -6 4 -8 8 -4 8 9 0 -199 410 -215 426 -9
8 -34 -1 -97 -36z"/>
</g>
</svg>
